<svg xmlns="http://www.w3.org/2000/svg" viewBox="0 0 1600 900" role="img" aria-label="黎明天台">
  <defs>
    <linearGradient id="dawn" x1="0" y1="0" x2="0" y2="1">
      <stop offset="0" stop-color="#243d59"/>
      <stop offset=".48" stop-color="#da8c78"/>
      <stop offset=".72" stop-color="#f2c875"/>
      <stop offset="1" stop-color="#26202a"/>
    </linearGradient>
    <radialGradient id="sun" cx=".68" cy=".35" r=".28">
      <stop offset="0" stop-color="#fff3bb"/>
      <stop offset=".5" stop-color="#ffb56d" stop-opacity=".55"/>
      <stop offset="1" stop-color="#ffb56d" stop-opacity="0"/>
    </radialGradient>
    <linearGradient id="glass" x1="0" y1="0" x2="1" y2="1">
      <stop offset="0" stop-color="#40566c"/>
      <stop offset="1" stop-color="#1b2532"/>
    </linearGradient>
  </defs>
  <rect width="1600" height="900" fill="url(#dawn)"/>
  <circle cx="1080" cy="286" r="300" fill="url(#sun)"/>
  <g opacity=".72">
    <rect x="48" y="390" width="188" height="376" fill="#232b36"/>
    <rect x="286" y="332" width="250" height="434" fill="#263340"/>
    <rect x="590" y="444" width="176" height="322" fill="#1d2631"/>
    <rect x="810" y="282" width="254" height="484" fill="#29394a"/>
    <rect x="1116" y="408" width="190" height="358" fill="#222d38"/>
    <rect x="1360" y="342" width="178" height="424" fill="#263340"/>
  </g>
  <g fill="#f4d98c" opacity=".22">
    <rect x="82" y="432" width="34" height="68"/>
    <rect x="144" y="432" width="34" height="68"/>
    <rect x="340" y="376" width="42" height="78"/>
    <rect x="430" y="376" width="42" height="78"/>
    <rect x="864" y="330" width="44" height="78"/>
    <rect x="948" y="330" width="44" height="78"/>
    <rect x="1410" y="388" width="36" height="70"/>
  </g>
  <rect x="0" y="656" width="1600" height="244" fill="#191a20"/>
  <path d="M0 664 L1600 664" stroke="#59606a" stroke-width="10"/>
  <g opacity=".8">
    <rect x="164" y="584" width="16" height="88" fill="#292e36"/>
    <rect x="166" y="594" width="1254" height="12" fill="#292e36"/>
    <rect x="1410" y="584" width="16" height="88" fill="#292e36"/>
    <rect x="324" y="584" width="12" height="88" fill="#292e36"/>
    <rect x="484" y="584" width="12" height="88" fill="#292e36"/>
    <rect x="644" y="584" width="12" height="88" fill="#292e36"/>
    <rect x="804" y="584" width="12" height="88" fill="#292e36"/>
    <rect x="964" y="584" width="12" height="88" fill="#292e36"/>
    <rect x="1124" y="584" width="12" height="88" fill="#292e36"/>
    <rect x="1284" y="584" width="12" height="88" fill="#292e36"/>
  </g>
  <ellipse cx="808" cy="724" rx="500" ry="76" fill="#343640" opacity=".62"/>
  <path d="M548 704 C670 650 940 650 1056 704 C928 732 676 736 548 704 Z" fill="url(#glass)" opacity=".9"/>
</svg>
