<svg xmlns="http://www.w3.org/2000/svg" viewBox="0 0 1600 900" role="img" aria-label="雨夜旧车站">
  <defs>
    <linearGradient id="sky" x1="0" y1="0" x2="1" y2="1">
      <stop offset="0" stop-color="#10202b"/>
      <stop offset=".48" stop-color="#263b4a"/>
      <stop offset="1" stop-color="#16181f"/>
    </linearGradient>
    <radialGradient id="lamp" cx=".5" cy=".36" r=".42">
      <stop offset="0" stop-color="#ffeaa6" stop-opacity=".95"/>
      <stop offset=".45" stop-color="#f9b45c" stop-opacity=".28"/>
      <stop offset="1" stop-color="#f9b45c" stop-opacity="0"/>
    </radialGradient>
    <filter id="blur">
      <feGaussianBlur stdDeviation="16"/>
    </filter>
    <pattern id="rain" width="80" height="80" patternUnits="userSpaceOnUse" patternTransform="rotate(14)">
      <line x1="20" y1="-12" x2="20" y2="36" stroke="#c7f2ff" stroke-width="2" stroke-opacity=".28"/>
      <line x1="58" y1="10" x2="58" y2="64" stroke="#c7f2ff" stroke-width="1.4" stroke-opacity=".18"/>
    </pattern>
  </defs>
  <rect width="1600" height="900" fill="url(#sky)"/>
  <rect width="1600" height="900" fill="url(#rain)" opacity=".65"/>
  <rect x="0" y="660" width="1600" height="240" fill="#16191d"/>
  <path d="M0 704 C260 660 468 686 695 654 C982 614 1220 690 1600 646 L1600 900 L0 900 Z" fill="#242a2e"/>
  <g opacity=".58">
    <rect x="130" y="356" width="1060" height="52" rx="5" fill="#22282d"/>
    <rect x="182" y="408" width="80" height="280" fill="#1a2024"/>
    <rect x="586" y="408" width="72" height="280" fill="#1a2024"/>
    <rect x="1024" y="408" width="80" height="280" fill="#1a2024"/>
    <path d="M120 354 L1110 242 L1210 356 Z" fill="#32383b"/>
    <path d="M180 386 L1110 296" stroke="#56606a" stroke-width="7" opacity=".55"/>
  </g>
  <g transform="translate(220 164)">
    <ellipse cx="410" cy="202" rx="350" ry="230" fill="url(#lamp)" filter="url(#blur)"/>
    <rect x="363" y="40" width="95" height="176" rx="14" fill="#1f2428"/>
    <rect x="377" y="56" width="67" height="118" rx="10" fill="#ffd67b"/>
    <rect x="399" y="216" width="24" height="490" fill="#20252a"/>
    <path d="M344 706 L478 706 L454 744 L368 744 Z" fill="#15191d"/>
  </g>
  <g opacity=".7">
    <path d="M958 688 L1306 688" stroke="#90989a" stroke-width="5"/>
    <path d="M916 748 L1386 748" stroke="#686f72" stroke-width="4"/>
    <path d="M1020 688 L948 900" stroke="#40484b" stroke-width="8"/>
    <path d="M1192 688 L1156 900" stroke="#40484b" stroke-width="8"/>
    <path d="M1362 688 L1372 900" stroke="#40484b" stroke-width="8"/>
  </g>
  <g opacity=".9">
    <rect x="1274" y="422" width="150" height="222" rx="18" fill="#282f35"/>
    <rect x="1293" y="442" width="112" height="66" rx="8" fill="#8ee0d8" opacity=".6"/>
    <rect x="1296" y="530" width="108" height="16" rx="8" fill="#f5c15f" opacity=".72"/>
    <rect x="1296" y="562" width="80" height="13" rx="7" fill="#eaf5f4" opacity=".5"/>
    <rect x="1296" y="590" width="96" height="13" rx="7" fill="#eaf5f4" opacity=".36"/>
  </g>
  <path d="M0 834 C282 806 406 854 662 818 C958 776 1216 842 1600 812 L1600 900 L0 900 Z" fill="#0d1014" opacity=".55"/>
</svg>
