<svg xmlns="http://www.w3.org/2000/svg" viewBox="0 0 520 760" role="img" aria-label="守钟人颜烬">
  <defs>
    <linearGradient id="cloak" x1="0" y1="0" x2="1" y2="1">
      <stop offset="0" stop-color="#5e3d46"/>
      <stop offset="1" stop-color="#201821"/>
    </linearGradient>
    <linearGradient id="silver" x1="0" y1="0" x2="0" y2="1">
      <stop offset="0" stop-color="#e8e8da"/>
      <stop offset="1" stop-color="#908d91"/>
    </linearGradient>
    <filter id="shadow">
      <feDropShadow dx="0" dy="22" stdDeviation="18" flood-color="#000" flood-opacity=".36"/>
    </filter>
  </defs>
  <g filter="url(#shadow)">
    <path d="M108 704 C136 436 144 312 216 262 L304 262 C376 312 384 436 412 704 Z" fill="url(#cloak)"/>
    <path d="M198 286 C222 336 294 336 322 286 L358 704 L162 704 Z" fill="#211b25"/>
    <path d="M172 180 C156 92 210 46 278 50 C356 56 392 118 370 204 C354 266 316 298 260 298 C208 298 184 244 172 180 Z" fill="#231d25"/>
    <path d="M198 156 C202 112 232 88 274 90 C322 92 350 130 344 184 C338 238 306 274 260 274 C216 274 194 222 198 156 Z" fill="#e5c6af"/>
    <path d="M184 170 C236 162 304 126 338 78 C366 112 382 152 372 212 C408 124 344 48 278 50 C206 48 152 102 172 204 C176 190 178 180 184 170 Z" fill="url(#silver)"/>
    <path d="M220 224 C240 240 280 240 300 224" fill="none" stroke="#7d5960" stroke-width="5" stroke-linecap="round"/>
    <circle cx="232" cy="176" r="7" fill="#252831"/>
    <circle cx="300" cy="176" r="7" fill="#252831"/>
    <path d="M262 172 L254 210 L276 210" fill="none" stroke="#aa8172" stroke-width="4" stroke-linecap="round" stroke-linejoin="round"/>
    <path d="M154 374 L218 454 L184 514 L124 430 Z" fill="#342330"/>
    <path d="M366 374 L302 454 L336 514 L396 430 Z" fill="#342330"/>
    <circle cx="260" cy="386" r="42" fill="#cba65c"/>
    <circle cx="260" cy="386" r="28" fill="#17151a"/>
    <line x1="260" y1="386" x2="260" y2="365" stroke="#cba65c" stroke-width="5" stroke-linecap="round"/>
    <line x1="260" y1="386" x2="277" y2="396" stroke="#cba65c" stroke-width="4" stroke-linecap="round"/>
  </g>
</svg>
