<svg xmlns="http://www.w3.org/2000/svg" viewBox="0 0 1600 900" role="img" aria-label="三年前天台雨夜">
  <defs>
    <linearGradient id="sky" x1="0" y1="0" x2="0" y2="1">
      <stop offset="0" stop-color="#25364d"/>
      <stop offset=".5" stop-color="#1b2430"/>
      <stop offset="1" stop-color="#09090d"/>
    </linearGradient>
    <radialGradient id="memory" cx=".5" cy=".4" r=".45">
      <stop offset="0" stop-color="#fff0c4" stop-opacity=".25"/>
      <stop offset=".56" stop-color="#c55f65" stop-opacity=".12"/>
      <stop offset="1" stop-color="#c55f65" stop-opacity="0"/>
    </radialGradient>
    <pattern id="rain" width="86" height="86" patternUnits="userSpaceOnUse" patternTransform="rotate(12)">
      <line x1="22" y1="-16" x2="22" y2="76" stroke="#ffffff" stroke-width="2" stroke-opacity=".35"/>
      <line x1="60" y1="12" x2="60" y2="88" stroke="#ffffff" stroke-width="1.3" stroke-opacity=".18"/>
    </pattern>
  </defs>
  <rect width="1600" height="900" fill="url(#sky)"/>
  <rect width="1600" height="900" fill="url(#memory)"/>
  <rect width="1600" height="900" fill="url(#rain)" opacity=".54"/>
  <g opacity=".56">
    <rect x="70" y="360" width="190" height="360" fill="#171d28"/>
    <rect x="304" y="300" width="240" height="420" fill="#202a37"/>
    <rect x="622" y="410" width="166" height="310" fill="#171d28"/>
    <rect x="850" y="260" width="270" height="460" fill="#202a37"/>
    <rect x="1190" y="380" width="180" height="340" fill="#171d28"/>
    <rect x="1420" y="318" width="160" height="402" fill="#202a37"/>
  </g>
  <rect y="640" width="1600" height="260" fill="#121218"/>
  <path d="M0 640 L1600 640" stroke="#575a62" stroke-width="10"/>
  <g stroke="#3b3e46" stroke-width="12" opacity=".9">
    <path d="M170 562 V650 M350 562 V650 M530 562 V650 M710 562 V650 M890 562 V650 M1070 562 V650 M1250 562 V650 M1430 562 V650"/>
    <path d="M160 568 H1440"/>
  </g>
  <g opacity=".86" transform="translate(664 448)">
    <ellipse cx="142" cy="206" rx="210" ry="48" fill="#040407" opacity=".34"/>
    <path d="M114 90 C86 118 70 162 72 226 L154 226 C150 158 140 116 114 90 Z" fill="#2b3745"/>
    <circle cx="116" cy="62" r="34" fill="#e5c0a5"/>
    <path d="M84 56 C90 18 136 14 154 48 C142 34 114 34 84 56 Z" fill="#2b2330"/>
    <path d="M188 98 C226 116 246 160 242 224 L160 224 C164 160 170 118 188 98 Z" fill="#d9b956"/>
    <circle cx="190" cy="68" r="34" fill="#eac8ae"/>
    <path d="M158 62 C166 22 214 18 232 54 C214 38 184 36 158 62 Z" fill="#2a2229"/>
    <path d="M128 132 C154 150 172 150 198 132" stroke="#f6e7d1" stroke-width="12" stroke-linecap="round"/>
  </g>
</svg>
