<svg xmlns="http://www.w3.org/2000/svg" viewBox="0 0 1600 900" role="img" aria-label="浴室镜子起雾">
  <defs>
    <linearGradient id="tile" x1="0" y1="0" x2="1" y2="1">
      <stop offset="0" stop-color="#2f4248"/>
      <stop offset=".52" stop-color="#1d272d"/>
      <stop offset="1" stop-color="#07090d"/>
    </linearGradient>
    <radialGradient id="fog" cx=".5" cy=".36" r=".42">
      <stop offset="0" stop-color="#e8ffff" stop-opacity=".52"/>
      <stop offset=".56" stop-color="#9fd3d7" stop-opacity=".18"/>
      <stop offset="1" stop-color="#9fd3d7" stop-opacity="0"/>
    </radialGradient>
    <filter id="blur"><feGaussianBlur stdDeviation="14"/></filter>
  </defs>
  <rect width="1600" height="900" fill="url(#tile)"/>
  <g opacity=".28" stroke="#b6d3d8" stroke-width="2">
    <path d="M0 160 H1600 M0 320 H1600 M0 480 H1600 M0 640 H1600"/>
    <path d="M200 0 V900 M400 0 V900 M600 0 V900 M800 0 V900 M1000 0 V900 M1200 0 V900 M1400 0 V900"/>
  </g>
  <ellipse cx="800" cy="360" rx="620" ry="360" fill="url(#fog)"/>
  <g transform="translate(470 110)">
    <rect x="0" y="0" width="660" height="560" rx="30" fill="#091014" opacity=".8"/>
    <rect x="28" y="28" width="604" height="504" rx="20" fill="#9ec3c9" opacity=".28"/>
    <ellipse cx="320" cy="210" rx="260" ry="170" fill="#e7ffff" opacity=".18" filter="url(#blur)"/>
    <path d="M168 264 C226 236 274 250 318 276 C372 306 424 288 488 246" fill="none" stroke="#f4ffff" stroke-width="10" stroke-linecap="round" opacity=".5"/>
    <path d="M204 336 C284 310 382 320 460 350" fill="none" stroke="#f4ffff" stroke-width="8" stroke-linecap="round" opacity=".46"/>
    <text x="330" y="260" text-anchor="middle" font-size="54" font-family="STSong, serif" fill="#edf9f7" opacity=".82">你每次都这样</text>
  </g>
  <rect x="0" y="702" width="1600" height="198" fill="#101216"/>
  <g opacity=".55">
    <rect x="1180" y="506" width="170" height="196" rx="20" fill="#151a1d"/>
    <rect x="1210" y="536" width="110" height="18" rx="9" fill="#dae4df" opacity=".35"/>
    <rect x="1210" y="578" width="86" height="14" rx="7" fill="#dae4df" opacity=".25"/>
  </g>
</svg>
