<svg xmlns="http://www.w3.org/2000/svg" viewBox="0 0 1600 900" role="img" aria-label="深夜客厅手机亮起">
  <defs>
    <linearGradient id="room" x1="0" y1="0" x2="1" y2="1">
      <stop offset="0" stop-color="#24222a"/>
      <stop offset=".58" stop-color="#181921"/>
      <stop offset="1" stop-color="#08090d"/>
    </linearGradient>
    <radialGradient id="phoneGlow" cx=".5" cy=".64" r=".34">
      <stop offset="0" stop-color="#c7f6ff" stop-opacity=".86"/>
      <stop offset=".36" stop-color="#6aa6b5" stop-opacity=".24"/>
      <stop offset="1" stop-color="#6aa6b5" stop-opacity="0"/>
    </radialGradient>
    <radialGradient id="lamp" cx=".12" cy=".16" r=".44">
      <stop offset="0" stop-color="#ffd28d" stop-opacity=".36"/>
      <stop offset="1" stop-color="#ffd28d" stop-opacity="0"/>
    </radialGradient>
  </defs>
  <rect width="1600" height="900" fill="url(#room)"/>
  <rect width="1600" height="900" fill="url(#lamp)"/>
  <ellipse cx="820" cy="574" rx="500" ry="260" fill="url(#phoneGlow)"/>
  <g opacity=".74">
    <rect x="104" y="124" width="420" height="530" rx="20" fill="#101116"/>
    <rect x="130" y="154" width="368" height="310" rx="10" fill="#273442"/>
    <path d="M130 464 L498 154" stroke="#9bd7e2" stroke-width="5" opacity=".18"/>
    <rect x="132" y="506" width="360" height="28" rx="14" fill="#cfbd91" opacity=".22"/>
    <rect x="132" y="556" width="300" height="18" rx="9" fill="#cfbd91" opacity=".16"/>
  </g>
  <rect x="0" y="620" width="1600" height="280" fill="#111017"/>
  <path d="M0 626 C382 594 526 632 812 596 C1100 560 1280 616 1600 588 L1600 900 L0 900 Z" fill="#1d1b23"/>
  <g transform="translate(660 442) rotate(-8)">
    <rect x="0" y="0" width="286" height="438" rx="42" fill="#07080c"/>
    <rect x="18" y="28" width="250" height="382" rx="30" fill="#d8f5f7"/>
    <rect x="44" y="72" width="198" height="54" rx="27" fill="#ffffff" opacity=".94"/>
    <text x="143" y="106" text-anchor="middle" font-size="25" font-family="Arial, sans-serif" fill="#1a2a31">陆眠</text>
    <rect x="44" y="164" width="198" height="124" rx="28" fill="#eff7f5"/>
    <text x="68" y="206" font-size="20" font-family="Arial, sans-serif" fill="#1a2a31">栀栀，我快撑不住了。</text>
    <text x="68" y="240" font-size="20" font-family="Arial, sans-serif" fill="#1a2a31">今晚十二点前...</text>
    <circle cx="143" cy="385" r="13" fill="#2a3238"/>
  </g>
  <g transform="translate(1060 608)" opacity=".7">
    <path d="M0 82 C80 12 210 18 270 74 C226 136 64 142 0 82 Z" fill="#eee8db"/>
    <path d="M44 92 C112 122 188 116 246 72" stroke="#67825e" stroke-width="8" stroke-linecap="round"/>
  </g>
</svg>
