<svg xmlns="http://www.w3.org/2000/svg" viewBox="0 0 1600 900" role="img" aria-label="废弃摄影棚照片墙">
  <defs>
    <linearGradient id="studio" x1="0" y1="0" x2="1" y2="1">
      <stop offset="0" stop-color="#25242c"/>
      <stop offset=".48" stop-color="#191820"/>
      <stop offset="1" stop-color="#08080d"/>
    </linearGradient>
    <radialGradient id="projector" cx=".66" cy=".24" r=".42">
      <stop offset="0" stop-color="#d9ffff" stop-opacity=".34"/>
      <stop offset=".5" stop-color="#6ea6b4" stop-opacity=".14"/>
      <stop offset="1" stop-color="#6ea6b4" stop-opacity="0"/>
    </radialGradient>
  </defs>
  <rect width="1600" height="900" fill="url(#studio)"/>
  <rect width="1600" height="900" fill="url(#projector)"/>
  <g opacity=".35" stroke="#4c4c58" stroke-width="3">
    <path d="M0 180 H1600 M0 420 H1600 M0 660 H1600"/>
    <path d="M210 0 V900 M520 0 V900 M830 0 V900 M1140 0 V900 M1450 0 V900"/>
  </g>
  <g transform="translate(122 116)">
    <rect x="0" y="0" width="620" height="520" rx="18" fill="#111119" opacity=".9"/>
    <g stroke="#7e3c42" stroke-width="4" opacity=".88">
      <path d="M74 82 L246 178 L408 90 L534 218"/>
      <path d="M124 334 L246 178 L368 360 L534 218"/>
      <path d="M74 82 L124 334 L368 360 L408 90"/>
    </g>
    <g>
      <rect x="44" y="44" width="120" height="92" rx="4" fill="#d8d0c2" transform="rotate(-5 104 90)"/>
      <rect x="198" y="130" width="120" height="92" rx="4" fill="#c6d8da" transform="rotate(5 258 176)"/>
      <rect x="358" y="42" width="120" height="92" rx="4" fill="#d8d0c2" transform="rotate(7 418 88)"/>
      <rect x="484" y="174" width="104" height="82" rx="4" fill="#c6d8da" transform="rotate(-8 536 215)"/>
      <rect x="82" y="286" width="118" height="92" rx="4" fill="#d8d0c2" transform="rotate(4 141 332)"/>
      <rect x="312" y="314" width="120" height="92" rx="4" fill="#c6d8da" transform="rotate(-6 372 360)"/>
    </g>
    <g fill="#1c2028" opacity=".45">
      <circle cx="104" cy="82" r="22"/><rect x="70" y="104" width="68" height="22"/>
      <circle cx="258" cy="166" r="21"/><rect x="226" y="188" width="64" height="20"/>
      <circle cx="418" cy="80" r="21"/><rect x="386" y="102" width="64" height="20"/>
      <circle cx="536" cy="208" r="18"/><rect x="508" y="226" width="56" height="18"/>
      <circle cx="141" cy="326" r="20"/><rect x="108" y="348" width="66" height="19"/>
      <circle cx="372" cy="352" r="20"/><rect x="338" y="374" width="68" height="18"/>
    </g>
  </g>
  <g transform="translate(890 150)">
    <rect x="0" y="0" width="520" height="310" rx="16" fill="#d6e6e8" opacity=".17"/>
    <path d="M30 48 H490 M30 96 H490 M30 144 H490 M30 192 H490 M30 240 H490" stroke="#e9ffff" stroke-width="3" opacity=".24"/>
    <circle cx="258" cy="154" r="68" fill="#e9ffff" opacity=".12"/>
  </g>
  <rect y="678" width="1600" height="222" fill="#0b0b10"/>
  <ellipse cx="790" cy="690" rx="620" ry="72" fill="#36323d" opacity=".26"/>
</svg>
