<svg xmlns="http://www.w3.org/2000/svg" viewBox="0 0 1600 900" role="img" aria-label="清晨客厅白玫瑰">
  <defs>
    <linearGradient id="dawn" x1="0" y1="0" x2="1" y2="1">
      <stop offset="0" stop-color="#f4d8af"/>
      <stop offset=".42" stop-color="#9abfc1"/>
      <stop offset="1" stop-color="#251d24"/>
    </linearGradient>
    <radialGradient id="sun" cx=".24" cy=".15" r=".56">
      <stop offset="0" stop-color="#fff4c9" stop-opacity=".8"/>
      <stop offset=".48" stop-color="#ffd08a" stop-opacity=".24"/>
      <stop offset="1" stop-color="#ffd08a" stop-opacity="0"/>
    </radialGradient>
  </defs>
  <rect width="1600" height="900" fill="url(#dawn)"/>
  <rect width="1600" height="900" fill="url(#sun)"/>
  <g opacity=".74">
    <rect x="82" y="100" width="540" height="460" rx="26" fill="#eaf7f5" opacity=".36"/>
    <path d="M82 372 C248 300 436 430 622 312 L622 560 L82 560 Z" fill="#fff1cf" opacity=".32"/>
    <path d="M352 100 V560 M82 330 H622" stroke="#ffffff" stroke-width="10" opacity=".22"/>
  </g>
  <rect y="610" width="1600" height="290" fill="#221b21"/>
  <path d="M0 650 C360 602 602 640 814 602 C1050 560 1274 620 1600 584 L1600 900 L0 900 Z" fill="#3c3136" opacity=".65"/>
  <g transform="translate(692 438)">
    <ellipse cx="150" cy="300" rx="270" ry="70" fill="#09070a" opacity=".22"/>
    <rect x="60" y="180" width="180" height="220" rx="24" fill="#b9d5d0" opacity=".32"/>
    <path d="M80 196 C108 154 138 124 160 76" stroke="#4d754c" stroke-width="10" fill="none" stroke-linecap="round"/>
    <path d="M162 78 C204 32 264 36 292 80 C250 116 196 116 162 78 Z" fill="#fff8ed"/>
    <path d="M142 118 C94 92 58 110 42 158 C88 178 124 162 142 118 Z" fill="#fff8ed"/>
    <path d="M164 88 C136 44 82 42 48 82 C76 122 128 128 164 88 Z" fill="#f0eee8"/>
    <path d="M150 86 C188 60 236 74 250 122 C208 146 174 130 150 86 Z" fill="#f7f5ee"/>
  </g>
  <g transform="translate(350 676)" opacity=".82">
    <rect x="0" y="0" width="360" height="64" rx="22" fill="#0e1115"/>
    <rect x="32" y="20" width="138" height="12" rx="6" fill="#f3e9d8" opacity=".44"/>
    <rect x="206" y="20" width="108" height="12" rx="6" fill="#f3e9d8" opacity=".3"/>
  </g>
</svg>
